# xmcd
#
# Track frame offsets:
#	182
#	13957
#	35407
#	51757
#	64282
#	79507
#	93982
#	112132
#	128932
#	146782
#	168382
#	183682
#	199057
#	213607
#	230807
#	247432
#	267082
#
# Disc length: 3878
#
# Revision: 1
# Processed by: cddbd v1.5.1PL0 Copyright (c) Steve Scherf et al.
# Submitted via: OrangeCD 4.1
# Normalized: r0:DSETVAR1,TDELIM( - )
#
DISCID=0d0f2411
DTITLE=Various Artist - The Alltime Greatest Country Rock
DYEAR=1900
DGENRE=
TTITLE0=Dwight Yoakam - Little Sister
TTITLE1=Lynyrd Skynyrd - Sweet Home Alabama
TTITLE2=Charlie Daniels Band - The Devil Went Down To Georgia
TTITLE3=Lee Kernaghan - Boys From The Bush
TTITLE4=Mary Chapin Carpenter - Passionate Kisses
TTITLE5=Alan Jackson - Summertime Blues
TTITLE6=James Blundell and James Reyne - Way Out West
TTITLE7=John Farnham - Talk Of The Town
TTITLE8=Orleans - Still The One
TTITLE9=The Allman Brothers - Ramblin' Man
TTITLE10=Billy Ray Cyrus - Achy Breaky Heart
TTITLE11=Juice Newton - Queen Of Hearts
TTITLE12=The Bellamy Brothers - Let Your Love Flow
TTITLE13=Wynonna - Tell Me Why
TTITLE14=Pure Prairie League - I'm Almost Ready
TTITLE15=Alabama - Roll On (Eighteen Wheeler)
TTITLE16=Joe Walsh - Rocky Mountain Way
EXTD=
EXTT0=
EXTT1=
EXTT2=
EXTT3=
EXTT4=
EXTT5=
EXTT6=
EXTT7=
EXTT8=
EXTT9=
EXTT10=
EXTT11=
EXTT12=
EXTT13=
EXTT14=
EXTT15=
EXTT16=
PLAYORDER=
